<?xml version="1.0" encoding="UTF-8"?><svg id="uuid-b7891172-06b5-492c-97f3-9866112b230f" xmlns="http://www.w3.org/2000/svg" viewBox="0 0 333.32 96.17"><defs><style>.uuid-2864d6b5-3826-4113-967b-0c08f2f09e72{fill:#faff00;}</style></defs><path class="uuid-2864d6b5-3826-4113-967b-0c08f2f09e72" d="m157.58,53.29H13.85L0,26.64,13.85,0h143.72l13.86,26.64-13.86,26.64Z"/><path d="m18.54,10.15h10.77v32.22h-10.77V10.15Z"/><path d="m33.68,10.15h10.77l12.8,16.76h.32V10.15h10.77v32.22h-10.77l-12.76-16.2h-.37v16.2h-10.77V10.15h0Z"/><path d="m107.53,26.03c0,10.59-9.07,16.34-15.84,16.34h-19.2V10.15h19.57c7.92,0,15.47,6.03,15.47,15.88Zm-10.87-.04c0-5.2-3.27-7.32-8.24-7.32h-5.16v15.19h5.52c4.51,0,7.88-3.04,7.88-7.87Z"/><path d="m110.99,10.15h10.77v32.22h-10.77V10.15Z"/><path d="m137.37,18.62v3.36h17.68v8.51h-17.68v3.41h17.68v8.47h-28.45V10.14h28.45v8.47h-17.68Z"/><path d="m0,79.01c0-9.16,7.46-16.57,16.62-16.57,4.74,0,8.98,1.98,12.02,5.11l-7.5,7.6c-1.11-1.29-2.72-2.07-4.51-2.07-3.27,0-5.94,2.67-5.94,5.93s2.67,5.99,5.94,5.99c1.75,0,3.36-.78,4.42-2.02l7.6,7.55c-3.04,3.13-7.32,5.11-12.02,5.11C7.47,95.65,0,88.23,0,79.03v-.02Z"/><path d="m47.24,83.24h-5.06v11.92h-10.77v-32.22h22.79c6.53,0,10.5,3.77,10.5,10.22,0,4.28-2.86,7.73-6.67,9.25l7.74,12.75h-11.69l-6.82-11.92h0Zm-5.06-8.43h10c1.01,0,1.75-.69,1.75-1.75,0-1.15-.74-1.66-1.75-1.66h-10v3.41Z"/><path d="m79.98,71.42v3.36h17.68v8.51h-17.68v3.41h17.68v8.47h-28.45v-32.22h28.45v8.47h-17.68Z"/><path d="m123.4,91.9h-11.61l-.87,3.27h-11.19l9.39-32.22h16.94l9.39,32.22h-11.19l-.87-3.27h0Zm-2.3-8.61l-3.13-11.83h-.74l-3.13,11.83h7Z"/><path d="m144.11,71.46h-9.58v-8.51h29.92v8.51h-9.58v23.7h-10.77v-23.7h0Z"/><path d="m165.62,79.01c0-9.16,7.46-16.57,16.62-16.57s16.62,7.41,16.62,16.57-7.46,16.62-16.62,16.62-16.62-7.41-16.62-16.62Zm22.56,0c0-3.27-2.67-5.93-5.94-5.93s-5.94,2.67-5.94,5.93,2.67,5.99,5.94,5.99,5.94-2.67,5.94-5.99Z"/><path d="m218.15,83.24h-5.06v11.92h-10.77v-32.22h22.79c6.53,0,10.5,3.77,10.5,10.22,0,4.28-2.86,7.73-6.67,9.25l7.74,12.75h-11.69l-6.82-11.92h0Zm-5.06-8.43h9.99c1.01,0,1.75-.69,1.75-1.75,0-1.15-.74-1.66-1.75-1.66h-9.99v3.41Z"/><path d="m239.1,86.65h16.81c1.43,0,2.12-.64,2.12-1.7s-.69-1.66-2.16-1.66h-7.64c-5.39,0-9.76-3.68-9.76-10.17,0-7.46,5.11-10.17,10.27-10.17h19.06v8.51h-16.44c-1.25,0-2.12.46-2.12,1.61s.87,1.7,2.12,1.7h7.18c6.17,0,10.27,3.63,10.27,10.13,0,6.12-4.6,10.27-10.59,10.27h-19.25l.14-8.51h0Z"/><path class="uuid-2864d6b5-3826-4113-967b-0c08f2f09e72" d="m333.32,62.54h-57.49v33.63h57.49v-33.63Z"/><path d="m303.98,69.83v19.13h-6.4v-7.05h-7.68v7.05h-6.4v-19.13h6.4v7.02h7.68v-7.02h6.4Z"/><path d="m320.63,88.96l-.47-.71c-1.28.63-2.74.99-4.27.99-5.44,0-9.87-4.39-9.87-9.86s4.43-9.83,9.87-9.83,9.87,4.39,9.87,9.83c0,1.94-.55,3.75-1.51,5.28l2.67,4.34-6.32-.03h.02Zm-3.96-6.13l-1.89-2.92h4.6c.03-.19.05-.35.05-.54,0-1.94-1.58-3.52-3.53-3.52s-3.52,1.58-3.52,3.52,1.58,3.56,3.52,3.56c.28,0,.52-.03.76-.08h0Z"/></svg>