<svg width="80" height="80" viewBox="0 0 80 80" fill="none" xmlns="http://www.w3.org/2000/svg">
<circle cx="8" cy="8" r="1" fill="#4B5563"/>
<circle cx="8" cy="24" r="1" fill="#4B5563"/>
<circle cx="8" cy="40" r="1" fill="#4B5563"/>
<circle cx="8" cy="56" r="1" fill="#4B5563"/>
<circle cx="8" cy="72" r="1" fill="#4B5563"/>
<circle cx="24" cy="8" r="1" fill="#4B5563"/>
<circle cx="24" cy="24" r="1" fill="#4B5563"/>
<circle cx="24" cy="40" r="1" fill="#4B5563"/>
<circle cx="24" cy="56" r="1" fill="#4B5563"/>
<circle cx="24" cy="72" r="1" fill="#4B5563"/>
<circle cx="40" cy="8" r="1" fill="#4B5563"/>
<circle cx="40" cy="24" r="1" fill="#4B5563"/>
<circle cx="40" cy="40" r="1" fill="#4B5563"/>
<circle cx="40" cy="56" r="1" fill="#4B5563"/>
<circle cx="40" cy="72" r="1" fill="#4B5563"/>
<circle cx="56" cy="8" r="1" fill="#4B5563"/>
<circle cx="56" cy="24" r="1" fill="#4B5563"/>
<circle cx="56" cy="40" r="1" fill="#4B5563"/>
<circle cx="56" cy="56" r="1" fill="#4B5563"/>
<circle cx="56" cy="72" r="1" fill="#4B5563"/>
<circle cx="72" cy="8" r="1" fill="#4B5563"/>
<circle cx="72" cy="24" r="1" fill="#4B5563"/>
<circle cx="72" cy="40" r="1" fill="#4B5563"/>
<circle cx="72" cy="56" r="1" fill="#4B5563"/>
<circle cx="72" cy="72" r="1" fill="#4B5563"/>
</svg>
