<svg width="145" height="89" viewBox="0 0 145 89" fill="none" xmlns="http://www.w3.org/2000/svg">
<path d="M68.4085 82.3806L67.8693 82.4563L68.0207 82.1063C68.1783 82.149 68.3157 82.2462 68.4085 82.3806ZM25.2587 14.4212C23.2725 14.2415 21.4753 13.901 19.262 15.1401C18.808 14.7995 17.6919 14.5063 17.3136 14.7806L17.4649 14.8941C16.9541 15.2157 16.6798 14.459 16.311 14.9698L15.961 15.5752C15.7056 15.4617 15.1381 15.5089 15.2232 15.2536C14.8922 15.5657 14.1166 15.2535 14.145 15.9535H13.8045L0.146362 54.2132L23.3103 86.9396C23.3924 86.9028 23.4779 86.8743 23.5657 86.8545V87.0153C24.1332 86.8072 24.5115 86.2491 25.2114 86.287C24.9371 86.5518 25.2966 86.9775 25.4479 87.1761C25.6276 87.6395 24.8047 88.0652 24.9844 88.3489L25.4385 88.2922C25.7979 87.8665 26.0154 87.2801 26.7059 87.3463C26.8761 86.9207 26.2519 86.8451 26.0533 86.8545C26.6208 86.5708 27.6044 86.9113 27.822 86.3627C27.5761 86.4194 27.4815 86.3627 27.472 86.183C27.472 86.2586 28.1152 85.0668 28.4179 85.2371C28.3138 85.5587 28.4652 85.4168 28.3044 85.7668C28.6638 85.9181 28.853 85.7668 29.08 85.5398C29.0838 85.5211 29.0838 85.5018 29.08 85.483C29.1972 85.3772 29.3411 85.3052 29.4961 85.2749C28.9948 85.8235 30.1299 85.1425 29.8083 85.7195C29.6191 85.7195 29.4867 85.4925 29.307 85.5871C29.1273 85.6816 29.7137 85.7006 29.3921 85.937L29.08 85.483C29.1367 86.1451 28.2382 85.6344 28.4179 86.4289C29.6759 86.4951 29.8272 85.6722 30.8298 85.1331C31.2659 85.0719 31.7084 85.0719 32.1445 85.1331C32.0878 85.1331 31.9365 85.133 32.0027 85.2844C33.0431 85.7289 32.6837 84.9817 33.516 85.483C33.6344 85.3158 33.7882 85.1766 33.9663 85.0752C34.1445 84.9739 34.3427 84.9129 34.547 84.8966L11.6101 52.6242L25.2493 14.4117L25.2587 14.4212ZM119.787 0.233424H119.589C119.681 0.291656 119.784 0.333268 119.891 0.356389L119.787 0.205078V0.233424ZM129.615 72.7897C129.378 73.1302 129.113 73.641 129.492 73.9058C129.492 73.5653 129.719 73.5558 130.002 73.5937C129.927 73.7166 129.889 73.8774 129.775 73.9436C129.838 73.8914 129.904 73.844 129.974 73.8018L129.917 73.9531L129.094 74.0666L128.858 73.9342C128.858 73.7261 129.123 73.4329 129.028 73.414C128.94 73.4079 128.851 73.4213 128.768 73.4533C128.685 73.4853 128.611 73.5351 128.549 73.5992C128.488 73.6632 128.441 73.74 128.413 73.8241C128.385 73.9081 128.375 73.9974 128.385 74.0855L128.186 74.1423C128.101 73.972 127.988 73.7923 127.808 73.7829C127.779 73.7467 127.741 73.7182 127.698 73.7001C127.655 73.6819 127.608 73.6747 127.562 73.6788C127.515 74.2558 126.786 74.0666 126.673 74.3503C126.86 74.3866 127.053 74.3866 127.24 74.3503L126.465 74.4544C126.361 74.3598 126.332 74.2841 126.682 74.1706C126.143 73.6504 126.314 74.3125 126.077 74.5112H125.803L125.377 74.2841C125.377 73.868 125.982 73.9909 125.869 73.8491L125.614 73.9342C125.841 73.5842 126.89 73.6504 127.458 73.1018L126.162 73.0451C124.63 73.7639 122.558 73.4707 121.329 74.5585H121.386C121.37 74.6492 121.37 74.7419 121.386 74.8327L121.31 74.7382L121.083 75.0881C120.724 74.7476 120.137 74.7476 119.617 74.5112C119.716 74.5645 119.803 74.6372 119.872 74.725C119.942 74.8128 119.994 74.9138 120.024 75.0219C120.03 75.1227 120.03 75.2238 120.024 75.3246L119.551 75.3908C119.551 75.23 119.702 75.1733 119.409 75.0314C119.589 75.1354 119.494 75.3435 119.324 75.4192H119.257C119.039 75.3522 118.827 75.2668 118.624 75.1638L118.699 74.9652L118.832 75.0219C118.832 75.0219 118.832 74.9462 118.718 74.8989L118.766 74.776C118.879 74.8706 119.021 74.9084 118.87 74.776C118.87 74.7287 118.87 74.6908 118.813 74.6435L132.594 36.0434L108.531 2.07785C108.833 2.13749 109.143 2.13552 109.444 2.07213C109.745 2.00874 110.03 1.88521 110.281 1.70895C110.378 1.73153 110.478 1.73153 110.575 1.70895L110.253 1.56705L111.36 1.41574C111.634 1.63328 111.804 1.49138 111.984 1.33059L112.466 1.27384C112.75 1.45355 113.109 1.8603 113.157 1.49142C113.232 1.49142 113.318 1.43468 113.393 1.32118L113.526 1.12253L113.904 1.06578H114.339C114.415 1.07807 114.494 1.07435 114.569 1.05481C114.643 1.03527 114.713 1.00034 114.774 0.95228L114.916 1.12253C115.162 1.06578 115.19 1.17927 115.162 1.23602H115.115C115.115 1.32115 115.115 1.30223 115.162 1.23602C116.108 1.81299 116.477 0.696882 117.508 1.16981C117.621 0.857676 117.337 0.744197 117.224 0.60232L118.17 0.469887L117.659 1.14146C117.921 0.945975 118.154 0.713347 118.349 0.450951L119.22 0.327986C119.56 0.517156 119.825 0.73472 119.768 1.05631C120.563 0.999559 119.466 0.677958 119.825 0.394202H119.901L144.02 34.4449L130.154 73.2437C129.87 73.1397 129.615 73.0073 129.624 72.733L129.615 72.7897ZM110.641 2.21028C110.385 2.0684 109.695 2.49399 109.364 2.70208C109.742 2.52237 110.745 2.49402 110.641 2.19134V2.21028ZM119.153 0.573916L118.652 0.886064L119.153 1.41574C119.759 1.12252 119.153 1.07522 119.153 0.573916ZM129.056 72.5627C128.561 72.6457 128.1 72.8726 127.732 73.2153L127.94 73.3667C128.319 72.9978 128.886 73.0829 129.056 72.5627ZM114.963 0.876596H114.85L114.925 0.933345L114.963 0.876596ZM110.234 1.64273C110.23 1.6082 110.23 1.57324 110.234 1.5387L108.976 1.70895C109.4 1.66026 109.826 1.63814 110.253 1.64273H110.234ZM108.891 2.03056C108.852 1.92738 108.801 1.829 108.74 1.73735L108.399 1.78463C108.454 1.86445 108.527 1.92955 108.613 1.9741C108.699 2.01866 108.794 2.04125 108.891 2.03997V2.03056ZM97.8055 4.86812C97.7299 4.58436 98.042 4.44245 98.2312 4.35732L98.1366 4.21548H97.9758H98.0988L97.9096 3.94115L97.5407 4.08305C98.3352 3.88442 97.2948 4.72624 97.8055 4.92487V4.86812ZM121.717 37.5283L108.03 75.7029C106.698 75.8714 105.387 76.1724 104.114 76.6015C103.575 76.7244 103.717 76.1853 103.443 76.034C102.232 76.1191 102.052 76.9136 100.936 77.2258C101.069 76.9893 101.248 76.3745 100.757 76.4218C100.7 76.6298 100.681 76.942 100.35 76.8569L100.482 76.6299C100.161 76.365 99.9243 76.6866 99.3189 76.6299C98.256 76.8356 97.3006 77.4121 96.6232 78.2567C95.6774 78.3135 96.6232 77.519 96.4246 77.396C97.1056 77.5568 96.8597 77.2163 96.9638 76.9704L97.1907 76.7812C97.1417 76.7948 97.096 76.8188 97.0569 76.8514C97.0178 76.884 96.986 76.9245 96.9638 76.9704C96.6516 77.2068 96.2544 77.3771 96.0179 76.9231C95.5995 76.9503 95.2042 77.1245 94.9018 77.4149C95.1193 77.2163 95.3558 77.4149 95.1666 77.6987C94.7505 77.5852 93.7857 77.8973 93.7573 77.292C91.5251 77.7271 89.0281 77.9446 86.5878 78.304C86.2283 78.6634 86.9093 78.3797 86.7202 78.6256C86.1905 79.108 86.2283 78.4837 85.7743 78.8621L85.9257 78.5121C85.2163 78.5121 84.5542 79.2688 83.911 79.666C83.9677 79.2782 83.3057 79.4296 83.8448 79.1363C83.5232 79.2404 82.8989 77.6324 82.6719 78.0108L83.2583 79.5052C83.2583 79.666 82.7854 79.6282 82.8516 79.7228C82.5111 79.4674 82.1044 79.1553 81.9058 79.1837C81.7544 78.7959 82.2747 78.8148 82.549 78.7864C82.5017 78.1243 81.5558 78.4932 81.8774 77.8405C81.3004 78.0297 82.0098 78.1716 81.6883 78.4554L81.1491 78.3891L81.5842 78.5594C81.1775 78.8148 81.1018 79.3255 80.4681 79.0418L79.9573 79.7606C79.8249 79.2593 79.5128 79.7606 79.1817 79.6471L79.3331 79.2972C79.1868 79.3312 79.0352 79.3353 78.8873 79.3092C78.7394 79.2832 78.5982 79.2276 78.4723 79.1458C78.6426 78.6634 78.8601 79.2121 78.898 78.7675L78.425 78.6729C78.4723 78.9661 78.2169 79.2309 78.5575 79.3633C78.2169 79.9687 78.0562 80.4511 76.9968 80.5551C76.4577 80.12 77.4508 80.0444 77.186 79.6093C76.0699 79.5525 76.0415 81.0943 75.3983 81.1227C74.5565 81.0281 74.67 81.4821 73.8471 81.6239C74.0647 81.2551 73.2229 81.3402 73.0337 81.0375L73.308 80.6403C73.0715 80.7822 72.8161 80.6403 72.854 80.4227C72.9675 80.8768 71.8514 80.9997 71.3123 81.2929L71.4636 81.6807C71.0115 81.9519 70.5037 82.1168 69.9786 82.1631H70.1205H69.7516C69.827 82.1722 69.9032 82.1722 69.9786 82.1631L69.8462 82.2198L68.6828 82.3806C68.6828 82.2671 68.6828 82.1441 68.6828 82.0306C68.9003 82.2104 69.203 82.0307 69.5246 82.1253C70.3664 81.6618 70.9339 80.7443 71.8419 80.8105C72.0879 79.8079 71.2555 81.0091 70.7826 80.7254C70.785 80.7054 70.7923 80.6863 70.8039 80.6698C70.8154 80.6533 70.8308 80.6399 70.8488 80.6308H70.7353C71.0379 80.47 71.5298 80.243 71.5487 79.7512C71.038 79.9214 71.2933 80.7537 70.6029 80.4322C70.1583 80.7632 69.657 80.0728 69.3543 80.0444C69.08 80.4511 69.1652 81.2172 68.3517 81.17L68.626 80.593C67.7275 80.7065 68.3139 81.4348 67.4815 81.5388C67.7842 81.5388 67.264 82.0969 67.8221 82.0306C67.6546 82.1992 67.4465 82.3218 67.2178 82.3864C66.9892 82.451 66.7477 82.4556 66.5168 82.3995C66.4222 82.4847 66.5168 82.5603 66.5168 82.6928H66.2898L65.902 82.4468C65.9273 82.4972 65.9346 82.5548 65.9225 82.6099C65.9105 82.665 65.8798 82.7143 65.8358 82.7495L65.1169 82.8535C65.1086 82.6286 65.1715 82.4069 65.2966 82.2198H65.3818C65.2966 82.0023 65.3345 81.9266 65.0129 81.8509C64.8426 82.1441 65.098 82.4847 65.0129 82.7968L64.4832 82.863C64.2089 82.8157 63.84 83.0522 63.3009 82.863C63.4995 82.2198 64.1143 82.759 64.1994 82.1725C63.613 82.1725 63.5279 82.5982 62.9036 82.5225C62.9036 82.2388 63.5279 82.1347 63.4333 81.7753L63.0266 81.6523C63.9724 81.4915 62.7618 80.924 63.4711 80.7065C63.0928 80.5079 63.055 81.2645 62.5253 80.9524C62.6955 81.1983 63.1495 81.624 62.7144 81.8983L62.1564 81.7942C61.8916 81.5294 62.6293 81.0753 62.2415 80.8483L61.7118 81.1321C61.7591 81.3118 62.0334 81.3686 61.901 81.6429C61.5511 81.4915 61.4659 82.409 61.1254 82.7306C60.8227 82.7306 60.5768 82.7306 60.4444 82.5603C59.8099 82.9876 59.1426 83.364 58.4487 83.6859H58.2973C58.3919 83.3927 57.9947 83.2413 57.7298 83.0427C58.2689 82.8914 58.2027 82.3239 58.1082 81.9739C57.7866 82.0779 57.6447 82.6927 57.8433 82.8535C57.2474 82.7022 57.5028 83.2981 56.9637 82.986C56.6232 82.8346 57.0488 82.409 56.9069 82.2104C56.3016 82.2671 56.8407 82.9198 56.1597 82.8725C56.1597 82.7968 56.2448 82.7684 56.1597 82.6738C55.9895 82.649 55.8164 82.6915 55.6769 82.7921C55.5375 82.8927 55.4426 83.0437 55.4125 83.213C54.9301 82.5225 54.3531 83.4305 54.3342 82.7117C53.5019 83.0238 54.5139 83.0806 54.3815 83.3549C54.0694 83.7237 53.3883 83.5535 53.1708 83.4684C53.3789 83.4684 53.5491 83.1941 53.7667 83.2792L53.5208 82.8063C52.4047 82.5982 53.0006 84.0264 51.9034 83.7521C52.4047 83.4211 52.0263 83.3549 52.2439 82.9671C52.102 83.1184 51.298 83.0806 51.8182 83.4021C51.5003 83.4081 51.1828 83.3763 50.8724 83.3076C50.5603 83.544 50.2008 83.7332 50.0495 84.0832C49.5836 84.0711 49.1334 83.9121 48.7631 83.6291C47.6754 84.1399 46.5309 83.6764 45.3865 84.225H45.4811C45.3996 84.2123 45.3166 84.2123 45.2351 84.225L21.8064 51.1202L35.2091 13.5794C35.4105 13.4916 35.6278 13.4464 35.8475 13.4464C36.0672 13.4464 36.2846 13.4916 36.486 13.5794C36.259 13.3807 36.7508 12.7943 37.1197 12.8322C37.4886 12.87 37.4129 13.0119 37.2994 13.2105L37.7345 12.9079C38.425 13.551 38.9357 13.0024 39.8248 13.1349V13.3429C39.9595 13.1824 40.1273 13.0528 40.3167 12.963C40.506 12.8733 40.7125 12.8254 40.922 12.8227V13.2389C41.5558 13.447 41.2531 12.2931 41.9435 12.5011C41.8773 12.0661 41.4328 11.8958 41.3193 11.4891C41.5274 11.9053 42.2651 11.8769 42.0287 11.5836C42.6435 11.3188 42.4732 11.5364 42.5489 11.5836L42.8894 11.262C43.3434 11.262 43.1164 11.8201 42.984 12.0944C43.3434 11.5647 43.8447 11.8296 44.3366 11.839L44.1663 12.066H44.8095L44.5636 12.3971C44.8088 12.4157 45.0549 12.3768 45.2824 12.2836C45.3675 11.6971 45.1689 12.3403 44.8095 12.0566C45.007 11.8702 45.2485 11.7369 45.5115 11.6691C45.7745 11.6013 46.0504 11.6012 46.3134 11.6688L46.0202 12.2836C46.4363 12.5389 46.181 12.066 46.2756 11.9525C46.8242 11.5837 47.0039 11.9525 47.3633 12.2458C48.224 11.508 49.3685 12.9268 50.0684 11.9525L50.2103 12.2836C51.2129 11.4039 52.6222 12.2836 53.36 11.1297C54.8639 12.1417 54.0977 9.94734 55.4787 10.8364L55.4125 10.6756C59.4891 10.3162 63.8779 10.354 67.5856 9.25683V9.49329C73.7431 9.06766 79.6263 7.75296 85.6987 7.10978C86.2378 6.80711 85.8216 6.33419 86.2662 5.99369C86.4837 5.99369 86.9566 5.8896 87.0039 6.19228C86.6161 6.40982 86.881 6.63681 86.758 6.76923C86.6383 6.79255 86.5211 6.82744 86.408 6.87332C86.6161 6.87332 86.7107 6.87328 86.758 6.76923C87.4296 6.64627 88.366 6.86382 88.9145 6.41927L88.3565 6.11665C88.574 5.91802 88.9618 5.97475 89.1699 5.97475C89.1132 6.17338 89.4726 6.54224 89.3023 6.6652C90.4563 5.5491 90.3617 6.93008 91.3927 6.40986C91.4967 5.58697 92.7547 4.7357 93.5681 4.03577L94.06 4.18708C93.4357 4.26274 94.1546 4.76404 93.379 4.83025C94.0505 4.98158 94.5991 4.54649 95.2707 4.59379C95.3066 4.65215 95.3594 4.69832 95.422 4.72622L95.6112 4.66947C95.5024 4.62641 95.3875 4.60085 95.2707 4.59379C95.2313 4.55383 95.2015 4.50542 95.1836 4.45223C95.1658 4.39904 95.1603 4.34247 95.1676 4.28683C95.1749 4.2312 95.1948 4.17798 95.2258 4.13119C95.2567 4.0844 95.298 4.04528 95.3463 4.01683C95.7341 4.07358 95.8287 4.47086 96.2922 4.45194L95.9044 4.76403C96.2355 5.02887 96.4246 4.60329 96.68 4.51816C96.8124 4.83975 97.4556 4.81135 97.3988 5.19914C97.8623 4.71676 98.0988 4.85863 98.5717 4.60325L98.7892 4.90593C98.6598 4.99481 98.5103 5.05006 98.3541 5.06671C98.5528 5.06671 98.7892 5.19914 99.0352 5.25589L121.736 37.3392L121.717 37.5283ZM43.4569 12.4065C43.2015 12.2741 42.9272 12.6903 42.6151 12.5862L42.7192 12.3876L42.2462 12.9835C42.8799 12.974 42.9178 12.5579 43.4569 12.4065ZM43.6177 12.52L43.4664 13.0024C43.5231 13.0024 43.6461 12.9078 43.7123 13.0024C43.8163 12.8038 43.7123 12.6619 43.6177 12.5106V12.52ZM59.0635 81.9644C58.9704 82.0456 58.8511 82.0903 58.7277 82.0903C58.6042 82.0903 58.485 82.0456 58.3919 81.9644L58.5622 82.2104C58.7324 82.1158 59.1486 82.3617 59.0635 82.0023V81.9644ZM60.0093 81.8509L60.4255 81.6334L59.9242 81.8321H60.0093V81.8509ZM60.7187 81.9456V81.7658L60.1985 82.1725L60.7187 81.9456ZM61.22 82.078L60.5012 82.3239H60.7471L61.22 82.078ZM65.448 80.5551C64.8994 80.4889 65.1264 81.2078 64.7575 81.2078C64.5399 81.0281 64.7575 80.924 64.5967 80.8105C64.4237 80.7191 64.2242 80.6908 64.0326 80.7305C63.841 80.7702 63.6692 80.8754 63.5468 81.028C63.6511 81.1745 63.7249 81.3403 63.7639 81.5158C63.8029 81.6913 63.8063 81.8728 63.7738 82.0496C64.3981 81.7847 64.6061 80.82 65.0223 81.4915L65.448 80.5551ZM66.1952 80.8011C66.0912 80.5268 65.7033 80.6497 65.6561 80.9146C65.779 80.6875 66.0344 80.8105 66.1857 80.8105L66.1952 80.8011ZM66.8005 81.2078L66.2425 81.4537L66.4222 81.5199C66.6397 81.5199 66.8667 81.378 66.81 81.2078H66.8005ZM70.4704 80.1957H70.3191C70.3191 80.0633 69.9502 79.8269 70.3191 79.7039C70.007 79.6093 69.8367 80.4605 70.461 80.1957H70.4704ZM72.4473 79.4863C72.3527 79.6376 71.8608 79.6755 72.173 79.8836L72.4473 79.4863ZM73.4593 79.8269L73.0904 79.6377L73.0242 79.8457L73.4593 79.8269ZM75.5591 79.2593C75.1524 79.1458 74.7078 80.0349 74.3957 79.458C73.3458 79.9214 74.793 80.4038 73.5728 80.8389C74.793 80.9903 74.0079 79.5809 75.1051 79.7795C74.5471 79.4674 75.4078 79.4296 75.5591 79.2593ZM75.8902 80.2052C75.8902 79.893 75.4078 79.9403 75.2848 80.2052C75.4267 80.2241 75.7294 80.6119 75.8807 80.2524L75.8902 80.2052ZM77.2522 78.531L76.9495 78.881L77.4225 79.335C77.8102 79.0229 76.9117 79.1458 77.2522 78.5405V78.531ZM77.7062 78.6824C77.5927 78.7486 77.4981 78.8053 77.6022 78.8526C77.6244 78.8052 77.6567 78.7633 77.6968 78.7296L77.7062 78.6824ZM77.9143 78.7486V78.5594C77.8704 78.6004 77.819 78.6325 77.7629 78.654C77.8102 78.6823 77.8765 78.7013 77.9048 78.7959L77.9143 78.7486ZM79.806 79.0513L79.7492 78.8904L79.5033 78.6634L79.806 79.0607V79.0513ZM80.5627 78.5594C80.2411 78.4837 80.0708 78.6067 80.1938 78.9283C80.5154 78.9188 80.2979 78.7486 80.5343 78.6067L80.5627 78.5594ZM92.8588 5.62479C92.7547 5.5302 92.4331 5.8234 92.5655 5.96528C92.698 5.84232 92.9344 5.88962 92.8398 5.67207L92.8588 5.62479ZM96.4908 5.22755C96.1256 5.3804 95.7821 5.5807 95.4693 5.82338C95.6301 5.82338 95.8382 5.92748 95.7909 5.64372C95.9381 5.6596 96.0866 5.62768 96.2143 5.55274C96.342 5.4778 96.4423 5.36382 96.5003 5.22755H96.4908Z" fill="#FAFF00"/>
<path d="M61.901 25.7809L75.8334 23.8892L81.5653 65.5823L67.6234 67.474L61.901 25.7809Z" fill="black"/>
</svg>
